<?xml version="1.0" encoding="utf-8"?>
<!-- Generator: Adobe Illustrator 21.1.0, SVG Export Plug-In . SVG Version: 6.00 Build 0)  -->
<svg version="1.1" id="Layer_1" xmlns="http://www.w3.org/2000/svg" xmlns:xlink="http://www.w3.org/1999/xlink" x="0px" y="0px"
	 viewBox="0 0 396 144" style="enable-background:new 0 0 396 144;" xml:space="preserve">
<style type="text/css">
	.st0{fill:#003B71;}
</style>
<g>
	<path class="st0" d="M97.5,35.6v27.2L87.1,52.5L55.9,21.2H44.6l52.9,52.9v26.6l0,0l8.4,8.4l0,0l0,0V21.2H83.1L97.5,35.6z
		 M98.8,36.8l5.9,5.9v26.6l-5.9-5.9V36.8z M98.8,75.4l5.9,5.9v24.8l-5.9-5.9V75.4z"/>
	<path class="st0" d="M18,21.2L18,21.2l69.1,69.1l0,0V66.9L41.4,21.2H18z M85.9,87.3L21.1,22.5h19.8l45,45V87.3z"/>
	<path class="st0" d="M87.1,28.4l-7.2-7.2H59.1l28,28C87.1,49.2,87.1,28.4,87.1,28.4z M85.9,46.2L62.2,22.5h17.2l6.5,6.5V46.2z"/>
	<polygon class="st0" points="294.1,21.2 270.5,21.2 251.7,21.2 228.1,21.2 228.1,40 251.7,40 251.7,109.2 270.5,109.2 270.5,40 
		294.1,40 	"/>
	<rect x="121" y="21.2" class="st0" width="18.8" height="88"/>
	<path class="st0" d="M209.8,21.2h-44c-3,0-5.6,1.1-7.8,3.3c-2.1,2.1-3.2,4.7-3.2,7.7v66c0,3,1.1,5.6,3.2,7.8
		c2.1,2.1,4.7,3.2,7.8,3.2h44c3,0,5.6-1.1,7.7-3.2c2.2-2.1,3.3-4.7,3.3-7.8v-66c0-3-1.1-5.6-3.3-7.7
		C215.4,22.3,212.8,21.2,209.8,21.2z M202,84.1c0,1.8-0.7,3.3-2.1,4.5c-1.4,1.2-3.1,1.8-5,1.8h-14.2c-2,0-3.7-0.6-5.1-1.8
		c-1.3-1.2-2-2.8-2-4.5V46.3c0-1.7,0.7-3.2,2-4.4c1.4-1.2,3.1-1.9,5.1-1.9h14.2c1.9,0,3.6,0.6,5,1.9c1.4,1.2,2.1,2.7,2.1,4.4V84.1z"
		/>
	<path class="st0" d="M338.8,92.3c0-9.2-7.5-16.8-16.8-16.8s-16.8,7.5-16.8,16.8s7.5,16.8,16.8,16.8h16.5v-8.4H322
		c-3.1,0-5.7-1.7-7.2-4.1h23.5C338.7,95.2,338.8,93.8,338.8,92.3z M314.8,88.2c1.5-2.5,4.1-4.2,7.2-4.2s5.7,1.7,7.2,4.2H314.8z"/>
	<path class="st0" d="M361.2,75.5c-9.3,0-16.8,7.5-16.8,16.8s7.5,16.8,16.8,16.8h8.4v13.7h8.4V92.3C378,83.1,370.5,75.5,361.2,75.5z
		 M369.6,100.7h-8.4c-4.6,0-8.4-3.8-8.4-8.4s3.8-8.4,8.4-8.4s8.4,3.8,8.4,8.4V100.7z"/>
	<g>
		<path class="st0" d="M298.2,87.8v7.7h-19.6v-7.7H298.2z"/>
	</g>
</g>
</svg>
